# File created by Blade
# Date/Time:  Thu Jan 22 18:06:27 2015
# Frame Rate: 120.000 fps
#------------------------------------------------------
:FULLY-SPECIFIED
:DEGREES
1919
root 1.000157 32.939935 -2.932010 8.822933 27.052737 3.597091
RightUpLeg -35.889786 34.268923 -17.289454
RightLeg 98.852905 -0.000000 -0.000000
RightFoot 2.115655 9.505559 -10.976709
RightToeBase -5.837431 -0.000000 0.000000
LeftUpLeg -2.618097 -12.756472 -9.522981
LeftLeg -0.114574 -0.000000 0.000000
LeftFoot -4.308118 -11.388471 -4.229736
LeftToeBase 8.110066 -0.000000 -0.000000
Spine -8.827113 -13.402887 -1.464732
RightShoulder -19.724892 -20.333056 -22.403500
RightArm 13.906655 27.221131 52.568145
RightForeArm -7.887121 0.000000 14.391374
RightHand 10.730145 0.000000 1.438710
RightHandThumb1 -24.326973 -0.000000 -32.862282
LeftShoulder -18.545927 -0.968683 24.215219
LeftArm 34.102815 -21.483495 -63.659503
LeftForeArm 5.550109 0.000000 51.269172
LeftHand 1.939783 -0.000000 31.486298
LeftHandThumb1 -26.253704 0.000000 33.147579
Head 17.050785 -2.933206 -2.984719
1920
root 1.005542 32.930386 -2.929109 8.829222 26.871678 3.701487
RightUpLeg -35.757804 34.077757 -17.103674
RightLeg 98.713084 -0.000000 -0.000000
RightFoot 1.979778 9.256080 -10.692124
RightToeBase -5.271519 -0.000000 0.000000
LeftUpLeg -2.550856 -12.715840 -9.640748
LeftLeg -0.161321 -0.000000 0.000000
LeftFoot -4.308060 -11.322979 -4.259908
LeftToeBase 8.078229 -0.000000 -0.000000
Spine -8.824675 -13.303371 -1.604586
RightShoulder -19.616944 -20.228068 -22.481676
RightArm 13.953980 27.146436 52.501769
RightForeArm -7.907180 0.000000 14.495539
RightHand 10.730989 -0.000000 1.349565
RightHandThumb1 -24.326973 -0.000000 -32.862282
LeftShoulder -18.560980 -1.085315 24.276112
LeftArm 33.860710 -21.525969 -63.619879
LeftForeArm 5.590798 -0.000000 51.405168
LeftHand 1.977369 0.000000 31.417869
LeftHandThumb1 -26.253704 0.000000 33.147579
Head 17.000505 -2.910904 -3.023730
1921
root 1.008954 32.919681 -2.934206 8.881822 26.671562 3.810589
RightUpLeg -35.707703 33.866295 -16.976240
RightLeg 98.594865 -0.000000 -0.000000
RightFoot 1.884854 8.925379 -10.516581
RightToeBase -5.079667 -0.000000 0.000000
LeftUpLeg -2.561331 -12.684479 -9.758003
LeftLeg -0.171566 -0.000000 0.000000
LeftFoot -4.337904 -11.242912 -4.273239
LeftToeBase 8.096033 -0.000000 -0.000000
Spine -8.854494 -13.169274 -1.750212
RightShoulder -19.603722 -20.231656 -22.477937
RightArm 14.216328 27.217671 52.514091
RightForeArm -7.998429 -0.000000 14.523892
RightHand 10.777206 -0.000000 1.387075
RightHandThumb1 -24.326973 -0.000000 -32.862282
LeftShoulder -18.572533 -0.994020 24.273550
LeftArm 33.866662 -21.639175 -63.647176
LeftForeArm 5.605878 -0.000000 51.526763
LeftHand 1.957738 -0.000000 31.386364
LeftHandThumb1 -26.253704 0.000000 33.147579
Head 16.928026 -2.893192 -3.045124
1922
root 1.013193 32.910285 -2.933464 8.901505 26.461584 3.891721
RightUpLeg -35.606041 33.681451 -16.806588
RightLeg 98.421503 -0.000000 -0.000000
RightFoot 1.807622 8.634313 -10.447435
RightToeBase -5.019547 -0.000000 0.000000
LeftUpLeg -2.528482 -12.673688 -9.855977
LeftLeg -0.206579 -0.000000 0.000000
LeftFoot -4.365806 -11.119338 -4.305664
LeftToeBase 8.140126 -0.000000 -0.000000
Spine -8.882228 -13.031493 -1.851324
RightShoulder -19.536337 -20.180144 -22.542375
RightArm 14.337746 27.225237 52.503081
RightForeArm -8.068829 -0.000000 14.664358
RightHand 10.704360 -0.000000 1.307651
RightHandThumb1 -24.326973 -0.000000 -32.862282
LeftShoulder -18.593500 -0.905382 24.227795
LeftArm 33.870424 -21.738025 -63.615092
LeftForeArm 5.589791 -0.000000 51.600381
LeftHand 1.963871 -0.000000 31.370743
LeftHandThumb1 -26.253704 0.000000 33.147579
Head 16.858545 -2.867432 -3.089728
1923
root 1.021532 32.900605 -2.928131 8.912498 26.225883 3.963126
RightUpLeg -35.498764 33.542924 -16.639223
RightLeg 98.253139 -0.000000 -0.000000
RightFoot 1.742189 8.361896 -10.094720
RightToeBase -4.867438 -0.000000 0.000000
LeftUpLeg -2.470664 -12.621278 -9.955918
LeftLeg -0.274152 -0.000000 0.000000
LeftFoot -4.372010 -11.024637 -4.317889
LeftToeBase 8.096024 -0.000000 -0.000000
Spine -8.915901 -12.912581 -1.926155
RightShoulder -19.505919 -20.088853 -22.597053
RightArm 14.513423 27.080415 52.409842
RightForeArm -8.053726 -0.000000 14.718855
RightHand 10.842333 -0.000000 1.259334
RightHandThumb1 -24.326973 -0.000000 -32.862282
LeftShoulder -18.683118 -0.791757 24.183140
LeftArm 33.872460 -21.797552 -63.567373
LeftForeArm 5.581912 -0.000000 51.668617
LeftHand 1.920813 0.000000 31.310949
LeftHandThumb1 -26.253704 0.000000 33.147579
Head 16.770900 -2.791792 -3.135469
1924
root 1.026802 32.891645 -2.926393 8.927727 25.988465 4.034602
RightUpLeg -35.426933 33.445346 -16.537294
RightLeg 98.081270 -0.000000 -0.000000
RightFoot 1.625801 8.267799 -9.596511
RightToeBase -4.677564 -0.000000 0.000000
LeftUpLeg -2.450643 -12.594481 -10.051584
LeftLeg -0.288682 -0.000000 0.000000
LeftFoot -4.395043 -10.914823 -4.345859
LeftToeBase 8.022098 -0.000000 -0.000000
Spine -8.946336 -12.785105 -2.014787
RightShoulder -19.430636 -20.020201 -22.664654
RightArm 14.624796 27.008657 52.357350
RightForeArm -8.069963 -0.000000 14.828821
RightHand 10.852919 -0.000000 1.243446
RightHandThumb1 -24.326973 -0.000000 -32.862282
LeftShoulder -18.745064 -0.743034 24.175426
LeftArm 33.820375 -21.846461 -63.500456
LeftForeArm 5.579317 -0.000000 51.698434
LeftHand 1.923867 -0.000000 31.289980
LeftHandThumb1 -26.253704 0.000000 33.147579
Head 16.716338 -2.728197 -3.155061
1925
root 1.031983 32.883877 -2.925605 8.947108 25.733202 4.106861
RightUpLeg -35.373169 33.359666 -16.463377
RightLeg 97.897046 -0.000000 -0.000000
RightFoot 1.428761 8.311287 -9.372363
RightToeBase -4.204068 -0.000000 0.000000
LeftUpLeg -2.440228 -12.523608 -10.149355
LeftLeg -0.292539 -0.000000 0.000000
LeftFoot -4.439916 -10.801131 -4.303716
LeftToeBase 8.031326 -0.000000 -0.000000
Spine -8.984632 -12.617489 -2.106917
RightShoulder -19.357001 -19.988162 -22.714761
RightArm 14.720116 26.982132 52.306906
RightForeArm -8.116761 -0.000000 14.950132
RightHand 10.843459 -0.000000 1.068218
RightHandThumb1 -24.326973 -0.000000 -32.862282
LeftShoulder -18.773938 -0.667886 24.150850
LeftArm 33.800340 -21.905757 -63.425180
LeftForeArm 5.580251 -0.000000 51.706722
LeftHand 1.898903 -0.000000 31.243335
LeftHandThumb1 -26.253704 0.000000 33.147579
Head 16.695212 -2.698089 -3.175513
1926
root 1.036551 32.876071 -2.926124 8.979016 25.480517 4.185499
RightUpLeg -35.310931 33.195260 -16.315690
RightLeg 97.702400 -0.000000 -0.000000
RightFoot 1.493939 8.104749 -9.346170
RightToeBase -6.576789 -0.000000 0.000000
LeftUpLeg -2.451737 -12.446520 -10.252798
LeftLeg -0.278777 -0.000000 0.000000
LeftFoot -4.483098 -10.705487 -4.236756
LeftToeBase 8.009039 -0.000000 -0.000000
Spine -9.017292 -12.474010 -2.198980
RightShoulder -19.280598 -19.963178 -22.758473
RightArm 14.816329 26.933396 52.252081
RightForeArm -8.078971 -0.000000 15.083805
RightHand 10.876748 -0.000000 1.147896
RightHandThumb1 -24.326973 -0.000000 -32.862282
LeftShoulder -18.831895 -0.570385 24.131037
LeftArm 33.814869 -21.963714 -63.346107
LeftForeArm 5.527036 0.000000 51.665744
LeftHand 1.917584 -0.000000 31.216647
LeftHandThumb1 -26.253704 0.000000 33.147579
Head 16.617602 -2.641250 -3.179350
1927
root 1.038230 32.868720 -2.930086 9.008938 25.239245 4.252788
RightUpLeg -35.291698 33.082279 -16.238227
RightLeg 97.526676 -0.000000 -0.000000
RightFoot 1.459606 8.092286 -9.141048
RightToeBase -4.553609 -0.000000 0.000000
LeftUpLeg -2.487908 -12.386541 -10.339890
LeftLeg -0.241916 -0.000000 0.000000
LeftFoot -4.538898 -10.606031 -4.166553
LeftToeBase 8.018810 -0.000000 -0.000000
Spine -9.022450 -12.359181 -2.274090
RightShoulder -19.201549 -19.874072 -22.836852
RightArm 14.868165 26.881984 52.226699
RightForeArm -8.123658 -0.000000 15.217899
RightHand 10.911925 -0.000000 1.140954
RightHandThumb1 -24.326973 -0.000000 -32.862282
LeftShoulder -18.912021 -0.549315 24.130835
LeftArm 33.749095 -21.973812 -63.209171
LeftForeArm 5.456585 -0.000000 51.631072
LeftHand 1.892605 -0.000000 31.275950
LeftHandThumb1 -26.253704 0.000000 33.147579
Head 16.491011 -2.587125 -3.186602
1928
root 1.044167 32.862325 -2.927993 9.006145 24.972306 4.287001
RightUpLeg -35.240817 33.045238 -16.158003
RightLeg 97.319574 -0.000000 -0.000000
RightFoot 1.408022 8.321640 -8.776824
RightToeBase -6.980942 -0.000000 0.000000
LeftUpLeg -2.476618 -12.319138 -10.408299
LeftLeg -0.240337 -0.000000 0.000000
LeftFoot -4.585920 -10.497336 -4.122988
LeftToeBase 8.031807 -0.000000 -0.000000
Spine -9.041046 -12.181502 -2.314190
RightShoulder -19.153804 -19.845070 -22.893532
RightArm 14.940504 26.806175 52.174168
RightForeArm -8.113549 -0.000000 15.343885
RightHand 10.898610 -0.000000 0.985460
RightHandThumb1 -24.326973 -0.000000 -32.862282
LeftShoulder -18.939762 -0.515708 24.127732
LeftArm 33.682207 -22.002000 -63.102981
LeftForeArm 5.439165 0.000000 51.576969
LeftHand 1.837343 -0.000000 31.291202
LeftHandThumb1 -26.253704 0.000000 33.147579
Head 16.432947 -2.555085 -3.208452
1929
root 1.046337 32.857109 -2.929035 9.007062 24.713867 4.317223
RightUpLeg -35.223223 33.072203 -16.130885
RightLeg 97.137883 -0.000000 -0.000000
RightFoot 1.306829 8.779997 -8.548156
RightToeBase -6.148445 -0.000000 0.000000
LeftUpLeg -2.493111 -12.264590 -10.463727
LeftLeg -0.208107 -0.000000 0.000000
LeftFoot -4.642065 -10.387469 -4.060487
LeftToeBase 8.110261 -0.000000 -0.000000
Spine -9.051888 -12.011719 -2.371424
RightShoulder -19.120972 -19.832183 -22.900843
RightArm 15.043465 26.707531 52.101608
RightForeArm -8.023052 -0.000000 15.407816
RightHand 10.893979 -0.000000 0.973889
RightHandThumb1 -24.326973 -0.000000 -32.862282
LeftShoulder -18.940859 -0.501182 24.163153
LeftArm 33.575642 -22.047478 -63.007369
LeftForeArm 5.354260 -0.000000 51.533518
LeftHand 1.907565 -0.000000 31.256247
LeftHandThumb1 -26.253704 0.000000 33.147579
Head 16.388507 -2.528945 -3.169215
1930
root 1.046669 32.853475 -2.929278 9.011933 24.468504 4.350156
RightUpLeg -35.204167 33.017135 -16.044906
RightLeg 96.956939 -0.000000 -0.000000
RightFoot 1.262821 9.073180 -8.415394
RightToeBase -6.724992 -0.000000 0.000000
LeftUpLeg -2.507287 -12.266191 -10.516749
LeftLeg -0.187211 -0.000000 0.000000
LeftFoot -4.684046 -10.222775 -3.983296
LeftToeBase 8.030787 -0.000000 -0.000000
Spine -9.058669 -11.869327 -2.423425
RightShoulder -19.075020 -19.800374 -22.936558
RightArm 15.111643 26.665678 52.079727
RightForeArm -8.009414 -0.000000 15.488654
RightHand 10.875082 0.000000 1.006031
RightHandThumb1 -24.326973 -0.000000 -32.862282
LeftShoulder -18.950879 -0.483139 24.170236
LeftArm 33.473930 -22.099103 -62.865385
LeftForeArm 5.262803 -0.000000 51.473547
LeftHand 1.926498 -0.000000 31.257592
LeftHandThumb1 -26.253704 0.000000 33.147579
Head 16.341673 -2.483552 -3.148835
1931
root 1.045686 32.851602 -2.928677 8.997832 24.240706 4.370612
RightUpLeg -35.159940 32.974923 -15.933962
RightLeg 96.779842 -0.000000 -0.000000
RightFoot 1.240615 9.346757 -8.225942
RightToeBase -6.808866 -0.000000 0.000000
LeftUpLeg -2.505882 -12.209976 -10.560659
LeftLeg -0.164834 -0.000000 0.000000
LeftFoot -4.722907 -10.119688 -3.878116
LeftToeBase 7.922528 -0.000000 -0.000000
Spine -9.043994 -11.753625 -2.468229
RightShoulder -19.036851 -19.774010 -22.951139
RightArm 15.204790 26.620405 52.064516
RightForeArm -7.999041 -0.000000 15.521062
RightHand 10.989912 -0.000000 0.948751
RightHandThumb1 -24.326973 -0.000000 -32.862282
LeftShoulder -18.964370 -0.513876 24.201225
LeftArm 33.315551 -22.133431 -62.719316
LeftForeArm 5.196133 -0.000000 51.415952
LeftHand 1.949994 -0.000000 31.243467
LeftHandThumb1 -26.253704 0.000000 33.147579
Head 16.300943 -2.431363 -3.115249
